<svg width="62" height="68" viewBox="0 0 62 68" fill="none" xmlns="http://www.w3.org/2000/svg">
<g filter="url(#filter0_d_458_2682)">
<path d="M57.237 8.62233C56.9404 6.68028 56.1077 4.88875 54.8541 3.4959C53.6005 2.10304 51.9881 1.1778 50.2402 0.848325C41.8363 -0.735322 25.9943 -1.45936 14.3426 11.4925C2.69081 24.4444 3.33726 42.0405 4.76258 51.3779C5.0599 53.322 5.89454 55.115 7.15066 56.5081C8.40678 57.9011 10.0221 58.8252 11.7723 59.1519C14.7168 59.7099 17.6981 59.9936 20.6851 60C29.0163 60 39.3907 57.6923 47.657 48.5077C59.3113 35.5616 58.6623 17.9598 57.237 8.62233ZM41.2418 4.58389C44.0265 4.5948 46.8055 4.86498 49.5496 5.39157C50.4483 5.56213 51.277 6.03876 51.9212 6.75553C52.5654 7.47231 52.9931 8.3938 53.1454 9.39252C53.681 12.842 53.9157 16.3409 53.8463 19.8406L40.141 4.61562C40.5045 4.59254 40.8653 4.58677 41.2418 4.58677V4.58389ZM12.4525 54.6058C11.5538 54.436 10.7247 53.96 10.0801 53.2437C9.43542 52.5275 9.00704 51.6063 8.85419 50.6077C8.31854 47.1582 8.08379 43.6593 8.15321 40.1597L21.856 55.3846C18.7062 55.4632 15.557 55.2024 12.4525 54.6058ZM44.7233 45.2481C41.7091 48.5943 36.0857 53.2471 27.2327 54.8452L8.6387 34.1857C10.077 24.3492 14.2647 18.1011 17.2763 14.7521C20.2878 11.4031 25.9112 6.75022 34.7643 5.15215L53.3608 25.8146C51.9225 35.6511 47.7349 41.8991 44.7233 45.2481ZM40.7719 19.1425C41.1611 19.5752 41.3797 20.1619 41.3797 20.7737C41.3797 21.3855 41.1611 21.9722 40.7719 22.405L37.0489 26.5386L38.6949 28.3674C38.9001 28.5784 39.0649 28.8333 39.1794 29.1168C39.2938 29.4002 39.3556 29.7064 39.3609 30.017C39.3663 30.3276 39.3151 30.6363 39.2106 30.9244C39.106 31.2125 38.9501 31.4742 38.7523 31.6938C38.5545 31.9134 38.3189 32.0863 38.0594 32.2022C37.8 32.3182 37.5222 32.3747 37.2427 32.3685C36.9631 32.3623 36.6876 32.2934 36.4326 32.166C36.1776 32.0386 35.9483 31.8553 35.7586 31.627L34.1152 29.8011L30.8206 33.4617L32.4666 35.2905C32.672 35.5013 32.837 35.756 32.9517 36.0393C33.0663 36.3227 33.1283 36.6288 33.1339 36.9394C33.1396 37.25 33.0887 37.5587 32.9843 37.8469C32.88 38.1351 32.7243 38.397 32.5267 38.6168C32.3291 38.8365 32.0935 39.0097 31.8342 39.1259C31.5749 39.2421 31.2971 39.2989 31.0176 39.293C30.738 39.287 30.4624 39.2184 30.2073 39.0912C29.9522 38.9641 29.7228 38.781 29.5329 38.553L27.8843 36.7213L24.1614 40.8578C23.9704 41.0811 23.7412 41.2597 23.4871 41.383C23.2331 41.5063 22.9594 41.5719 22.6822 41.5758C22.405 41.5797 22.1299 41.522 21.8731 41.4059C21.6163 41.2899 21.383 41.1179 21.187 40.9001C20.991 40.6823 20.8362 40.4231 20.7317 40.1378C20.6273 39.8524 20.5753 39.5468 20.5788 39.2388C20.5824 38.9308 20.6414 38.6267 20.7524 38.3444C20.8634 38.0622 21.0241 37.8074 21.2251 37.5953L24.9506 33.4617L23.3046 31.6328C22.9405 31.1947 22.7431 30.617 22.7538 30.0208C22.7646 29.4245 22.9827 28.8561 23.3624 28.4345C23.7421 28.013 24.2539 27.7712 24.7905 27.7598C25.3272 27.7484 25.847 27.9682 26.2409 28.3732L27.8869 30.202L31.1789 26.5386L29.5329 24.7098C29.1684 24.272 28.9705 23.6945 28.9808 23.0983C28.9911 22.502 29.2088 21.9333 29.5881 21.5114C29.9675 21.0896 30.4791 20.8472 31.0157 20.8353C31.5524 20.8233 32.0723 21.0426 32.4666 21.4473L34.1152 23.279L37.8382 19.1425C38.2275 18.7109 38.755 18.4685 39.305 18.4685C39.855 18.4685 40.3825 18.7109 40.7719 19.1425Z" fill="#F5FAFF"/>
</g>
<defs>
<filter id="filter0_d_458_2682" x="0" y="0" width="62" height="68" filterUnits="userSpaceOnUse" color-interpolation-filters="sRGB">
<feFlood flood-opacity="0" result="BackgroundImageFix"/>
<feColorMatrix in="SourceAlpha" type="matrix" values="0 0 0 0 0 0 0 0 0 0 0 0 0 0 0 0 0 0 127 0" result="hardAlpha"/>
<feOffset dy="4"/>
<feGaussianBlur stdDeviation="2"/>
<feComposite in2="hardAlpha" operator="out"/>
<feColorMatrix type="matrix" values="0 0 0 0 0 0 0 0 0 0 0 0 0 0 0 0 0 0 0.25 0"/>
<feBlend mode="normal" in2="BackgroundImageFix" result="effect1_dropShadow_458_2682"/>
<feBlend mode="normal" in="SourceGraphic" in2="effect1_dropShadow_458_2682" result="shape"/>
</filter>
</defs>
</svg>
